<?xml version="1.0" encoding="UTF-8"?>
<svg version="1.1" xmlns="http://www.w3.org/2000/svg" width="502" height="497">
<path d="M0 0 C53.46 0 106.92 0 162 0 C162.33 12.54 162.66 25.08 163 38 C174.33840294 37.9604758 174.33840294 37.9604758 185.67675781 37.90991211 C187.10221278 37.90699045 188.52766858 37.90444248 189.953125 37.90234375 C190.68837402 37.89722778 191.42362305 37.89211182 192.18115234 37.88684082 C195.70453317 37.8862412 198.55145925 38.13786481 202 39 C202 52.53 202 66.06 202 80 C154.48 80 106.96 80 58 80 C58 105.08 58 130.16 58 156 C92.32 156 126.64 156 162 156 C163.425 210.15 163.425 210.15 162 213 C127.68 213 93.36 213 58 213 C58 257.22 58 301.44 58 347 C25.99 347 -6.02 347 -39 347 C-39.63431353 342.5598053 -40.12505348 338.86418893 -40.12584114 334.4930687 C-40.12844889 333.44292957 -40.13105664 332.39279045 -40.13374341 331.31082892 C-40.13151268 330.17376258 -40.12928196 329.03669624 -40.12698364 327.86517334 C-40.12854363 326.64441046 -40.13010362 325.42364758 -40.13171089 324.16589189 C-40.13500306 320.78981045 -40.13382671 317.41378486 -40.13072467 314.03770685 C-40.12845903 310.3922014 -40.13195592 306.74670078 -40.13470459 303.10119629 C-40.13914826 295.96565902 -40.1381922 288.83013227 -40.13529195 281.69459459 C-40.13303312 275.89720779 -40.13272748 270.09982394 -40.13381577 264.30243683 C-40.133969 263.47719378 -40.13412223 262.65195073 -40.13428011 261.80170031 C-40.13459983 260.12526224 -40.13492404 258.44882417 -40.1352527 256.7723861 C-40.1381032 241.05863753 -40.13482683 225.34489479 -40.12945233 209.63114718 C-40.12498136 196.14113947 -40.12576347 182.65114036 -40.13037109 169.16113281 C-40.13571872 153.49721836 -40.13783204 137.83330902 -40.13475883 122.16939378 C-40.13444028 120.50036256 -40.13412591 118.83133133 -40.13381577 117.16230011 C-40.13366149 116.3410823 -40.13350721 115.51986449 -40.13334826 114.67376129 C-40.13248392 108.8797124 -40.13394414 103.08566674 -40.13629532 97.29161835 C-40.13909545 90.23617942 -40.13835039 83.18075162 -40.13301457 76.12531397 C-40.13038097 72.52396355 -40.12936682 68.92263172 -40.13266373 65.32128143 C-40.13617849 61.42314107 -40.1319906 57.52503135 -40.12698364 53.62689209 C-40.12921436 52.48090286 -40.13144509 51.33491363 -40.13374341 50.15419745 C-40.13113566 49.11448932 -40.12852791 48.07478118 -40.12584114 47.00356674 C-40.12567879 46.10324714 -40.12551644 45.20292755 -40.12534916 44.27532554 C-40 42 -40 42 -39 39 C-35.83821546 37.7385509 -32.60582253 37.87094442 -29.23828125 37.8671875 C-27.55895508 37.86525391 -27.55895508 37.86525391 -25.84570312 37.86328125 C-24.67974609 37.86714844 -23.51378906 37.87101562 -22.3125 37.875 C-20.59256836 37.86919922 -20.59256836 37.86919922 -18.83789062 37.86328125 C-17.71189453 37.86457031 -16.58589844 37.86585937 -15.42578125 37.8671875 C-13.90078003 37.86887939 -13.90078003 37.86887939 -12.3449707 37.87060547 C-8.21588391 38.0303322 -4.10690154 38.54367761 0 39 C0 26.13 0 13.26 0 0 Z " fill="#FC78B4" transform="translate(171,77)"/>
<path d="M0 0 C0.33 0 0.66 0 1 0 C1 1.65 1 3.3 1 5 C2.03930664 4.99476318 3.07861328 4.98952637 4.14941406 4.98413086 C8.01089616 4.9660102 11.87237452 4.95454214 15.73388672 4.94506836 C17.40414055 4.94004431 19.07438999 4.93322395 20.74462891 4.92456055 C23.14747196 4.91241054 25.55025679 4.90675237 27.953125 4.90234375 C28.69806213 4.89718246 29.44299927 4.89202118 30.21051025 4.88670349 C33.72412219 4.8863246 36.56095063 5.14023766 40 6 C40 19.53 40 33.06 40 47 C-7.52 47 -55.04 47 -104 47 C-104 72.08 -104 97.16 -104 123 C-69.68 123 -35.36 123 0 123 C1.425 177.15 1.425 177.15 0 180 C-34.32 180 -68.64 180 -104 180 C-104 224.22 -104 268.44 -104 314 C-136.01 314 -168.02 314 -201 314 C-201 313.67 -201 313.34 -201 313 C-169.32 313 -137.64 313 -105 313 C-105 268.45 -105 223.9 -105 178 C-44.06635802 176.85030864 -44.06635802 176.85030864 -23.6875 176.9375 C-16.530625 176.958125 -9.37375 176.97875 -2 177 C-2.33 160.5 -2.66 144 -3 127 C-36.66 126.67 -70.32 126.34 -105 126 C-105 99.6 -105 73.2 -105 46 C-57.48 46 -9.96 46 39 46 C39 33.13 39 20.26 39 7 C26.13 7 13.26 7 0 7 C0 4.69 0 2.38 0 0 Z " fill="#984A79" transform="translate(333,110)"/>
<path d="M0 0 C12.87 0 25.74 0 39 0 C38.67 0.66 38.34 1.32 38 2 C26.12 2 14.24 2 2 2 C1.67 101.66 1.34 201.32 1 304 C31.36 304 61.72 304 93 304 C93.33 260.77 93.66 217.54 94 173 C94.33 173 94.66 173 95 173 C95 216.89 95 260.78 95 306 C63.32 306 31.64 306 -1 306 C-0.67 205.02 -0.34 104.04 0 0 Z " fill="#ED7FB8" transform="translate(133,117)"/>
<path d="M0 0 C53.13 0 106.26 0 161 0 C161 12.87 161 25.74 161 39 C160.67 39 160.34 39 160 39 C160 26.46 160 13.92 160 1 C139.6945989 1.08534888 119.38929018 1.17888687 99.08400154 1.28752708 C89.6564408 1.3377027 80.22888897 1.38414494 70.80126953 1.421875 C62.58657124 1.45476024 54.37194113 1.49457204 46.157318 1.54279006 C41.80555621 1.56808968 37.45383985 1.5898606 33.10202408 1.60334396 C29.00954925 1.61613306 24.91722996 1.63815294 20.82484055 1.66738319 C19.31956916 1.67648375 17.81427271 1.68215494 16.30897522 1.68421364 C14.26023916 1.6875186 12.21153726 1.70414001 10.16287231 1.7215271 C8.44004123 1.72982324 8.44004123 1.72982324 6.68240547 1.73828697 C3.84844887 1.72815037 3.84844887 1.72815037 2 4 C1.82269676 6.74669763 1.76704696 9.38020481 1.8125 12.125 C1.81894531 12.92019043 1.82539063 13.71538086 1.83203125 14.53466797 C1.93141212 22.37488706 2.40366746 30.18378419 3 38 C1.515 38.495 1.515 38.495 0 39 C0 26.13 0 13.26 0 0 Z " fill="#DA7BAE" transform="translate(172,78)"/>
</svg>
